@startuml fusion-org-v1

[*] -> bootstrap

state bootstrap <<sdlreceive>> {
    bootstrap : stash all
    state "StoreGetPipeBranch" as sgpb
    sgpb : try to get existing internal data from database
    [*] --> sgpb : pipeToSelf
    state sgpResultb <<choice>>
    sgpb --> sgpResultb : StoreError
    sgpResultb --> [*] : [Duplicate || Other]
    sgpResultb --> Idle : [NotFound]
}

state Idle {
    Idle : stash all [except Get, Update, Delete, Passivate]
}

Idle -> Updated : Update

state ib <<choice>>

sgpb --> ib : Init
ib --> Shadow : [queryable = false]
Shadow : unstash all
ib --> Queryable : [queryable = true]
Queryable : unstash all

state Updated  {
    Updated : stash all
    state "StorePutPipeBranch" as sppb
    sppb : try to put and replace internal data in the database
    [*] --> sppb
    state sppResultb <<choice>>
    sppb --> sppResultb : WrappedUpdateResult
    sppResultb --> ib
}

Queryable -> Updated : Update

state Deleted {
    Deleted : stash all
    state "StoreDeletePipeBranch" as srpb
    srpb : try to delete internal data in the database
    [*] --> srpb
    state srpResultb <<choice>>
    srpb --> srpResultb : WrappedDeleteResult
    srpResultb --> ib : [DeleteFailure]
    srpResultb --> [*] : [DeleteSuccess]
}

Deleted -> Queryable : Delete

Shadow --> [*] : Passivate
Queryable --> [*] : Passivate
Idle --> [*] : Passivate

@enduml